<?xml version="1.0" encoding="utf-8"?>
<!-- Generator: Adobe Illustrator 16.0.0, SVG Export Plug-In . SVG Version: 6.00 Build 0)  -->
<!DOCTYPE svg PUBLIC "-//W3C//DTD SVG 1.1//EN" "http://www.w3.org/Graphics/SVG/1.1/DTD/svg11.dtd">
<svg version="1.1" id="Art" xmlns="http://www.w3.org/2000/svg" xmlns:xlink="http://www.w3.org/1999/xlink" x="0px" y="0px"
	 width="124px" height="300px" viewBox="0 0 124 300" enable-background="new 0 0 124 300" xml:space="preserve">
<g>
	<g>
		<g opacity="0.85">
			<path fill="#FFFFFF" d="M31,7.111C14.574,7.111,1.21,20.785,1.21,37.594c0,2.68,0.34,5.338,1.012,7.898
				c0.129,0.491,0.448,0.91,0.888,1.164c0.292,0.168,0.62,0.254,0.95,0.254c0.168,0,0.336-0.021,0.501-0.066l14.795-4.043
				c2.167,4.379,6.621,7.203,11.644,7.203c5.016,0,9.473-2.823,11.642-7.198l14.81,4.021c0.49,0.134,1.012,0.064,1.451-0.189
				c0.438-0.255,0.758-0.674,0.885-1.165c0.668-2.556,1.006-5.206,1.006-7.878C60.793,20.785,47.428,7.111,31,7.111z M36.885,37.307
				c0.005-0.103,0.016-0.203,0.016-0.307c0-1.125-0.322-2.173-0.871-3.068l7.549-5.172c1.558,2.369,2.472,5.197,2.472,8.239
				c0,0.919-0.087,1.832-0.251,2.727L36.885,37.307z M16.205,39.722c-0.163-0.894-0.25-1.806-0.25-2.723
				c0-3.041,0.914-5.87,2.471-8.239l7.545,5.172c-0.548,0.896-0.87,1.943-0.87,3.068c0,0.097,0.01,0.191,0.015,0.287L16.205,39.722z
				 M14.539,32.702l-8.718-1.733c0.753-3.016,2.009-5.826,3.668-8.334l7.298,5.002C15.774,29.17,15.016,30.879,14.539,32.702z
				 M26.741,32.929l-6.941-5.94c2.523-2.819,6.082-4.682,10.079-4.979l0.489,9.125C28.947,31.287,27.678,31.948,26.741,32.929z
				 M32.228,20.029l0.485-9.055c3.147,0.212,6.143,1.001,8.888,2.266l-3.978,8.066C35.946,20.596,34.127,20.165,32.228,20.029z
				 M29.773,20.029c-1.898,0.137-3.716,0.566-5.392,1.277l-3.979-8.067c2.745-1.264,5.739-2.053,8.886-2.265L29.773,20.029z
				 M31,34.9c1.158,0,2.1,0.941,2.1,2.1s-0.942,2.1-2.1,2.1s-2.1-0.941-2.1-2.1S29.843,34.9,31,34.9z M31.633,31.135l0.489-9.125
				c3.998,0.297,7.558,2.158,10.082,4.978l-6.943,5.942C34.323,31.948,33.054,31.287,31.633,31.135z M45.216,27.637l7.297-5.002
				c1.659,2.508,2.915,5.318,3.669,8.334l-8.717,1.732C46.989,30.878,46.23,29.169,45.216,27.637z M50.455,19.925l-6.744,5.772
				c-1.232-1.384-2.681-2.567-4.3-3.492l3.977-8.064C46.062,15.635,48.45,17.602,50.455,19.925z M18.616,14.14l3.978,8.065
				c-1.62,0.924-3.068,2.108-4.301,3.492l-6.745-5.772C13.553,17.602,15.941,15.635,18.616,14.14z M5.01,37.594
				c0-1.592,0.145-3.15,0.406-4.666l8.731,1.736c-0.105,0.766-0.179,1.541-0.179,2.335c0,1.095,0.104,2.184,0.31,3.249l-8.801,2.406
				C5.167,40.995,5.01,39.301,5.01,37.594z M31,48.004c-4.113,0-7.77-2.242-9.664-5.745l5.193-1.419
				C27.613,42.099,29.213,42.9,31,42.9c1.779,0,3.373-0.795,4.456-2.045l5.205,1.412C38.764,45.765,35.106,48.004,31,48.004z
				 M56.53,42.639l-8.804-2.391c0.206-1.064,0.311-2.153,0.311-3.249c0-0.794-0.073-1.569-0.18-2.336l8.729-1.735
				c0.262,1.516,0.406,3.074,0.406,4.666C56.993,39.294,56.837,40.983,56.53,42.639z"/>
		</g>
		<g>
			<path fill="#333331" d="M31,6.111C14.574,6.111,1.21,19.785,1.21,36.594c0,2.68,0.34,5.338,1.012,7.898
				c0.129,0.491,0.448,0.91,0.888,1.164c0.292,0.168,0.62,0.254,0.95,0.254c0.168,0,0.336-0.021,0.501-0.066l14.795-4.043
				c2.167,4.379,6.621,7.203,11.644,7.203c5.016,0,9.473-2.823,11.642-7.198l14.81,4.021c0.49,0.134,1.012,0.064,1.451-0.189
				c0.438-0.255,0.758-0.674,0.885-1.165c0.668-2.556,1.006-5.206,1.006-7.878C60.793,19.785,47.428,6.111,31,6.111z M36.885,36.307
				c0.005-0.103,0.016-0.203,0.016-0.307c0-1.125-0.322-2.173-0.871-3.068l7.549-5.172c1.558,2.369,2.472,5.197,2.472,8.239
				c0,0.919-0.087,1.832-0.251,2.727L36.885,36.307z M16.205,38.722c-0.163-0.894-0.25-1.806-0.25-2.723
				c0-3.041,0.914-5.87,2.471-8.239l7.545,5.172c-0.548,0.896-0.87,1.943-0.87,3.068c0,0.097,0.01,0.191,0.015,0.287L16.205,38.722z
				 M14.539,31.702l-8.718-1.733c0.753-3.016,2.009-5.826,3.668-8.334l7.298,5.002C15.774,28.17,15.016,29.879,14.539,31.702z
				 M26.741,31.929l-6.941-5.94c2.523-2.819,6.082-4.682,10.079-4.979l0.489,9.125C28.947,30.287,27.678,30.948,26.741,31.929z
				 M32.228,19.029l0.485-9.055c3.147,0.212,6.143,1.001,8.888,2.266l-3.978,8.066C35.946,19.596,34.127,19.165,32.228,19.029z
				 M29.773,19.029c-1.898,0.137-3.716,0.566-5.392,1.277l-3.979-8.067c2.745-1.264,5.739-2.053,8.886-2.265L29.773,19.029z
				 M31,33.9c1.158,0,2.1,0.941,2.1,2.1s-0.942,2.1-2.1,2.1s-2.1-0.941-2.1-2.1S29.843,33.9,31,33.9z M31.633,30.135l0.489-9.125
				c3.998,0.297,7.558,2.158,10.082,4.978l-6.943,5.942C34.323,30.948,33.054,30.287,31.633,30.135z M45.216,26.637l7.297-5.002
				c1.659,2.508,2.915,5.318,3.669,8.334l-8.717,1.732C46.989,29.878,46.23,28.169,45.216,26.637z M50.455,18.925l-6.744,5.772
				c-1.232-1.384-2.681-2.567-4.3-3.492l3.977-8.064C46.062,14.635,48.45,16.602,50.455,18.925z M18.616,13.14l3.978,8.065
				c-1.62,0.924-3.068,2.108-4.301,3.492l-6.745-5.772C13.553,16.602,15.941,14.635,18.616,13.14z M5.01,36.594
				c0-1.592,0.145-3.15,0.406-4.666l8.731,1.736c-0.105,0.766-0.179,1.541-0.179,2.335c0,1.095,0.104,2.184,0.31,3.249l-8.801,2.406
				C5.167,39.995,5.01,38.301,5.01,36.594z M31,47.004c-4.113,0-7.77-2.242-9.664-5.745l5.193-1.419
				C27.613,41.099,29.213,41.9,31,41.9c1.779,0,3.373-0.795,4.456-2.045l5.205,1.412C38.764,44.765,35.106,47.004,31,47.004z
				 M56.53,41.639l-8.804-2.391c0.206-1.064,0.311-2.153,0.311-3.249c0-0.794-0.073-1.569-0.18-2.336l8.729-1.735
				c0.262,1.516,0.406,3.074,0.406,4.666C56.993,38.294,56.837,39.983,56.53,41.639z"/>
		</g>
	</g>
	<rect opacity="0.5" fill="none" width="62" height="50"/>
</g>
<g>
	<g>
		<g opacity="0.85">
			<path fill="#FFFFFF" d="M31,65.023c6.053,0,10.979,4.926,10.979,10.976c0,6.056-4.926,10.979-10.979,10.979
				c-6.054,0-10.979-4.924-10.979-10.979C20.021,69.949,24.946,65.023,31,65.023 M31,63c-7.167,0-13,5.834-13,12.999
				C18,83.166,23.833,89,31,89c7.167,0,13-5.834,13-13.001C44,68.834,38.167,63,31,63L31,63z"/>
			<path fill="#FFFFFF" d="M31,65.023c6.053,0,10.979,4.926,10.979,10.976c0,6.056-4.926,10.979-10.979,10.979
				c-6.054,0-10.979-4.924-10.979-10.979C20.021,69.949,24.946,65.023,31,65.023 M31,63c-7.167,0-13,5.834-13,12.999
				C18,83.166,23.833,89,31,89c7.167,0,13-5.834,13-13.001C44,68.834,38.167,63,31,63L31,63z"/>
			<path fill="#FFFFFF" d="M31,67.001c-4.962,0-9,4.036-9,8.998c0,4.963,4.038,9.002,9,9.002s9-4.039,9-9.002
				C40,71.037,35.962,67.001,31,67.001z M29.449,74.451c-1.539,1.533-3.637,1.921-4.698,0.863c-1.055-1.059-0.669-3.157,0.869-4.696
				c1.536-1.537,3.637-1.921,4.696-0.867C31.369,70.811,30.982,72.912,29.449,74.451z M37.157,80.426
				c-0.835,0.835-1.942,1.08-2.469,0.554c-0.526-0.528-0.281-1.635,0.554-2.468c0.835-0.838,1.941-1.085,2.468-0.555
				C38.24,78.486,37.991,79.588,37.157,80.426z"/>
			<path fill="#FFFFFF" d="M48.965,59.174H27.789c-1.669,0-3.499,1.002-5.269,1.971C20.691,62.146,18.8,63.184,17,63.184h-0.183
				v-1.286c0-0.95-0.707-1.724-1.575-1.724H9.76c-0.87,0-1.577,0.773-1.577,1.724v1.286H6.759c-0.869,0-1.576,0.771-1.576,1.72
				V87.38c0,3.962,3.201,7.437,6.851,7.437h36.931c3.65,0,6.852-3.475,6.852-7.437V66.612C55.817,62.65,52.616,59.174,48.965,59.174
				z M43,64c0-0.55,0.449-1,1-1h5c0.549,0,1,0.45,1,1v2c0,0.55-0.451,1-1,1h-5c-0.551,0-1-0.45-1-1V64z M48.965,92.018H12.034
				c-2.083,0-4.051-2.254-4.051-4.638V71h11.409c1.942-4.49,6.413-7.644,11.608-7.644c5.194,0,9.665,3.153,11.608,7.644h10.409
				v16.38C53.017,89.764,51.048,92.018,48.965,92.018z"/>
		</g>
		<g>
			<g>
				<g>
					<path fill="#333331" d="M31,64.023c6.053,0,10.979,4.926,10.979,10.976c0,6.056-4.926,10.979-10.979,10.979
						c-6.054,0-10.979-4.924-10.979-10.979C20.021,68.949,24.946,64.023,31,64.023 M31,62c-7.167,0-13,5.834-13,12.999
						C18,82.166,23.833,88,31,88c7.167,0,13-5.834,13-13.001C44,67.834,38.167,62,31,62L31,62z"/>
				</g>
				<g>
					<path fill="#333331" d="M31,64.023c6.053,0,10.979,4.926,10.979,10.976c0,6.056-4.926,10.979-10.979,10.979
						c-6.054,0-10.979-4.924-10.979-10.979C20.021,68.949,24.946,64.023,31,64.023 M31,62c-7.167,0-13,5.834-13,12.999
						C18,82.166,23.833,88,31,88c7.167,0,13-5.834,13-13.001C44,67.834,38.167,62,31,62L31,62z"/>
				</g>
			</g>
			<path fill="#333331" d="M31,66.001c-4.962,0-9,4.036-9,8.998c0,4.963,4.038,9.002,9,9.002s9-4.039,9-9.002
				C40,70.037,35.962,66.001,31,66.001z M29.449,73.451c-1.539,1.533-3.637,1.921-4.698,0.863c-1.055-1.059-0.669-3.157,0.869-4.696
				c1.536-1.537,3.637-1.921,4.696-0.867C31.369,69.811,30.982,71.912,29.449,73.451z M37.157,79.426
				c-0.835,0.835-1.942,1.08-2.469,0.554c-0.526-0.528-0.281-1.635,0.554-2.468c0.835-0.838,1.941-1.085,2.468-0.555
				C38.24,77.486,37.991,78.588,37.157,79.426z"/>
			<path fill="#333331" d="M48.965,58.174H27.789c-1.669,0-3.499,1.002-5.269,1.971C20.691,61.146,18.8,62.184,17,62.184h-0.183
				v-1.286c0-0.95-0.707-1.724-1.575-1.724H9.76c-0.87,0-1.577,0.773-1.577,1.724v1.286H6.759c-0.869,0-1.576,0.771-1.576,1.72
				V86.38c0,3.962,3.201,7.437,6.851,7.437h36.931c3.65,0,6.852-3.475,6.852-7.437V65.612C55.817,61.65,52.616,58.174,48.965,58.174
				z M43,63c0-0.55,0.449-1,1-1h5c0.549,0,1,0.45,1,1v2c0,0.55-0.451,1-1,1h-5c-0.551,0-1-0.45-1-1V63z M48.965,91.018H12.034
				c-2.083,0-4.051-2.254-4.051-4.638V70h11.409c1.942-4.49,6.413-7.644,11.608-7.644c5.194,0,9.665,3.153,11.608,7.644h10.409
				v16.38C53.017,88.764,51.048,91.018,48.965,91.018z"/>
		</g>
	</g>
	<rect y="50" opacity="0.5" fill="none" width="62" height="50"/>
</g>
<g>
	<g>
		<g opacity="0.85">
			<path fill="#FFFFFF" d="M42.764,120.9h14.473c0.917,0,1.663-0.746,1.663-1.664v-12.473c0-0.918-0.746-1.664-1.663-1.664H42.764
				c-0.918,0-1.664,0.746-1.664,1.664V111h-7.659c-1.346,0-2.441,1.096-2.441,2.441V124h-8.1v-4.236
				c0-0.918-0.746-1.664-1.664-1.664H4.764c-0.917,0-1.664,0.746-1.664,1.664v14.473c0,0.918,0.746,1.664,1.664,1.664h16.473
				c0.917,0,1.664-0.746,1.664-1.664V130H31v10.559c0,1.346,1.095,2.441,2.441,2.441H41.1v4.236c0,0.918,0.746,1.664,1.664,1.664
				h14.473c0.917,0,1.663-0.746,1.663-1.664v-12.473c0-0.918-0.746-1.664-1.663-1.664H42.764c-0.918,0-1.664,0.746-1.664,1.664V139
				H35v-24h6.1v4.236C41.1,120.154,41.846,120.9,42.764,120.9z"/>
		</g>
		<g>
			<path fill="#333331" d="M42.764,119.9h14.473c0.917,0,1.663-0.746,1.663-1.664v-12.473c0-0.918-0.746-1.664-1.663-1.664H42.764
				c-0.918,0-1.664,0.746-1.664,1.664V110h-7.659c-1.346,0-2.441,1.096-2.441,2.441V123h-8.1v-4.236
				c0-0.918-0.746-1.664-1.664-1.664H4.764c-0.917,0-1.664,0.746-1.664,1.664v14.473c0,0.918,0.746,1.664,1.664,1.664h16.473
				c0.917,0,1.664-0.746,1.664-1.664V129H31v10.559c0,1.346,1.095,2.441,2.441,2.441H41.1v4.236c0,0.918,0.746,1.664,1.664,1.664
				h14.473c0.917,0,1.663-0.746,1.663-1.664v-12.473c0-0.918-0.746-1.664-1.663-1.664H42.764c-0.918,0-1.664,0.746-1.664,1.664V138
				H35v-24h6.1v4.236C41.1,119.154,41.846,119.9,42.764,119.9z"/>
		</g>
	</g>
	<rect y="100" opacity="0.5" fill="none" width="62" height="50"/>
</g>
<g>
	<g>
		<g opacity="0.85">
			<path fill="#FFFFFF" d="M59,184.723c-0.697,0-1.395-0.266-1.926-0.797l-7-7c-1.062-1.064-1.062-2.787,0-3.85
				c1.062-1.064,2.787-1.064,3.85,0l7,7c1.064,1.062,1.064,2.785,0,3.85C60.393,184.457,59.696,184.723,59,184.723z"/>
			<path fill="#FFFFFF" d="M43.499,178.809c-6.785,0-12.307-5.521-12.307-12.309s5.521-12.307,12.307-12.307
				c6.787,0,12.309,5.52,12.309,12.307S50.286,178.809,43.499,178.809z M43.499,158.809c-4.24,0-7.691,3.449-7.691,7.691
				s3.451,7.693,7.691,7.693c4.242,0,7.693-3.451,7.693-7.693S47.741,158.809,43.499,158.809z"/>
			<path fill="#FFFFFF" d="M3.25,196.807c-1.604,0-3.063-1.527-3.063-3.203v-1.689c0-0.689,0.498-0.964,1.127-1.311
				c0.134-0.074,0.271-0.15,0.408-0.232c0.792-0.47,3.375-1.665,3.4-1.677l0.096-0.044v-21.578c0-2.695,2.1-4.889,4.681-4.889
				h18.788l-0.12,0.44c-0.249,0.896-0.386,1.39-0.386,2.606c0,0.186,0.011,0.342,0.023,0.505l0.007,0.11H8.796v23.363h33.387v-6.99
				h3.703v6.43l0.094,0.045c0.024,0.012,2.519,1.207,3.312,1.679c0.137,0.082,0.275,0.158,0.409,0.232
				c0.628,0.347,1.125,0.621,1.125,1.31v1.689c0,1.676-1.461,3.203-3.065,3.203H3.25z M19.833,192.008
				c0,1.232,0.892,2.162,2.075,2.162h8.205c1.184,0,2.077-0.93,2.077-2.162v-0.164H19.833V192.008z"/>
		</g>
		<g>
			<path fill="#333331" d="M59,183.723c-0.697,0-1.395-0.266-1.926-0.797l-7-7c-1.062-1.064-1.062-2.787,0-3.85
				c1.062-1.064,2.787-1.064,3.85,0l7,7c1.064,1.062,1.064,2.785,0,3.85C60.393,183.457,59.696,183.723,59,183.723z"/>
			<path fill="#333331" d="M43.499,177.809c-6.785,0-12.307-5.521-12.307-12.309s5.521-12.307,12.307-12.307
				c6.787,0,12.309,5.52,12.309,12.307S50.286,177.809,43.499,177.809z M43.499,157.809c-4.24,0-7.691,3.449-7.691,7.691
				s3.451,7.693,7.691,7.693c4.242,0,7.693-3.451,7.693-7.693S47.741,157.809,43.499,157.809z"/>
			<g>
				<path fill="#333331" d="M3.25,195.807c-1.604,0-3.063-1.527-3.063-3.203v-1.689c0-0.689,0.498-0.964,1.127-1.311
					c0.134-0.074,0.271-0.15,0.408-0.232c0.792-0.47,3.375-1.665,3.4-1.677l0.096-0.044v-21.578c0-2.695,2.1-4.889,4.681-4.889
					h18.788l-0.12,0.44c-0.249,0.896-0.386,1.39-0.386,2.606c0,0.186,0.011,0.342,0.023,0.505l0.007,0.11H8.796v23.363h33.387v-6.99
					h3.703v6.43l0.094,0.045c0.024,0.012,2.519,1.207,3.312,1.679c0.137,0.082,0.275,0.158,0.409,0.232
					c0.628,0.347,1.125,0.621,1.125,1.31v1.689c0,1.676-1.461,3.203-3.065,3.203H3.25z M19.833,191.008
					c0,1.232,0.892,2.162,2.075,2.162h8.205c1.184,0,2.077-0.93,2.077-2.162v-0.164H19.833V191.008z"/>
			</g>
		</g>
	</g>
	<rect x="0" y="150" opacity="0.5" fill="none" width="62" height="50"/>
</g>
<g>
	<g>
		<g opacity="0.85">
			<path fill="#FFFFFF" d="M31.016,248.23c-1.373-0.001-2.094-0.441-2.729-0.829c-0.455-0.278-0.848-0.519-1.377-0.519H3.004
				c-0.748,0-1.359-0.654-1.359-1.459c0.021-0.391,3.881-28,3.92-28.279c0.076-0.537,0.57-0.975,1.102-0.975h0.787l0.715-4.508
				c2.922,1.406,6.99,1.803,10.604,2.057c-0.055,0.439-0.018,0.895,0.107,1.333c-3.775-0.179-7.072-0.397-9.209-1.197l-0.121-0.046
				l-2.492,25.489l0.053,0.033c2.127,1.329,6.941,1.665,11.598,1.99c4.732,0.33,9.625,0.672,11.355,2.069l0.162,0.131v-16.699
				c0.297,0.079,0.562,0.117,0.826,0.117c0.262,0,0.533-0.039,0.828-0.116v16.698l0.162-0.131c1.729-1.398,6.617-1.739,11.346-2.069
				c4.654-0.325,9.465-0.661,11.592-1.99l0.053-0.033l-2.488-25.489l-0.121,0.046c-2.029,0.758-4.164,0.995-7.578,1.167l1.488-1.488
				c3.277-0.27,5.367-0.787,7.59-1.871l0.715,4.508h0.787c0.533,0,1.025,0.438,1.098,0.975c0.039,0.279,3.902,27.889,3.924,28.281
				c0,0.803-0.609,1.457-1.359,1.457H35.12c-0.529,0-0.922,0.24-1.377,0.519C33.108,247.789,32.387,248.229,31.016,248.23
				L31.016,248.23z"/>
			<path fill="#FFFFFF" d="M31.327,224.886c-0.346,0-0.67-0.134-0.912-0.377l-9.465-9.464c-0.502-0.504-0.502-1.324,0-1.828
				l3.275-3.277c0.244-0.244,0.57-0.379,0.916-0.379s0.67,0.135,0.91,0.379l5.33,5.213l12.176-12.184
				c0.242-0.244,0.566-0.379,0.912-0.379c0.348,0,0.672,0.135,0.914,0.378l3.281,3.282c0.504,0.503,0.504,1.322,0,1.826
				l-16.424,16.432C31.997,224.752,31.672,224.886,31.327,224.886z"/>
			<path fill="#FFFFFF" d="M43,236c0-0.55,0.449-1,1-1h5c0.549,0,1,0.45,1,1l0,0c0,0.55-0.451,1-1,1h-5C43.45,237,43,236.55,43,236
				L43,236z"/>
			<path fill="#FFFFFF" d="M37,236c0-0.55,0.449-1,1-1h3c0.549,0,1,0.45,1,1l0,0c0,0.55-0.451,1-1,1h-3C37.45,237,37,236.55,37,236
				L37,236z"/>
			<path fill="#FFFFFF" d="M43,232c0-0.55,0.449-1,1-1h5c0.549,0,1,0.45,1,1l0,0c0,0.55-0.451,1-1,1h-5C43.45,233,43,232.55,43,232
				L43,232z"/>
			<path fill="#FFFFFF" d="M37,232c0-0.55,0.449-1,1-1h3c0.549,0,1,0.45,1,1l0,0c0,0.55-0.451,1-1,1h-3C37.45,233,37,232.55,37,232
				L37,232z"/>
			<path fill="#FFFFFF" d="M43,228c0-0.55,0.449-1,1-1h5c0.549,0,1,0.45,1,1l0,0c0,0.55-0.451,1-1,1h-5C43.45,229,43,228.55,43,228
				L43,228z"/>
			<path fill="#FFFFFF" d="M37,228c0-0.55,0.449-1,1-1h3c0.549,0,1,0.45,1,1l0,0c0,0.55-0.451,1-1,1h-3C37.45,229,37,228.55,37,228
				L37,228z"/>
			<path fill="#FFFFFF" d="M43,224c0-0.55,0.449-1,1-1h5c0.549,0,1,0.45,1,1l0,0c0,0.55-0.451,1-1,1h-5C43.45,225,43,224.55,43,224
				L43,224z"/>
			<path fill="#FFFFFF" d="M37,224c0-0.55,0.449-1,1-1h3c0.549,0,1,0.45,1,1l0,0c0,0.55-0.451,1-1,1h-3C37.45,225,37,224.55,37,224
				L37,224z"/>
			<path fill="#FFFFFF" d="M43,220c0-0.55,0.449-1,1-1h5c0.549,0,1,0.45,1,1l0,0c0,0.55-0.451,1-1,1h-5C43.45,221,43,220.55,43,220
				L43,220z"/>
			<path fill="#FFFFFF" d="M19,236c0-0.55-0.451-1-1-1h-5c-0.551,0-1,0.45-1,1l0,0c0,0.55,0.449,1,1,1h5
				C18.549,237,19,236.55,19,236L19,236z"/>
			<path fill="#FFFFFF" d="M25,236c0-0.55-0.451-1-1-1h-3c-0.551,0-1,0.45-1,1l0,0c0,0.55,0.449,1,1,1h3
				C24.549,237,25,236.55,25,236L25,236z"/>
			<path fill="#FFFFFF" d="M19,232c0-0.55-0.451-1-1-1h-5c-0.551,0-1,0.45-1,1l0,0c0,0.55,0.449,1,1,1h5
				C18.549,233,19,232.55,19,232L19,232z"/>
			<path fill="#FFFFFF" d="M25,232c0-0.55-0.451-1-1-1h-3c-0.551,0-1,0.45-1,1l0,0c0,0.55,0.449,1,1,1h3
				C24.549,233,25,232.55,25,232L25,232z"/>
			<path fill="#FFFFFF" d="M19,228c0-0.55-0.451-1-1-1h-5c-0.551,0-1,0.45-1,1l0,0c0,0.55,0.449,1,1,1h5
				C18.549,229,19,228.55,19,228L19,228z"/>
			<path fill="#FFFFFF" d="M25,228c0-0.55-0.451-1-1-1h-3c-0.551,0-1,0.45-1,1l0,0c0,0.55,0.449,1,1,1h3
				C24.549,229,25,228.55,25,228L25,228z"/>
			<path fill="#FFFFFF" d="M19,224c0-0.55-0.451-1-1-1h-5c-0.551,0-1,0.45-1,1l0,0c0,0.55,0.449,1,1,1h5
				C18.549,225,19,224.55,19,224L19,224z"/>
			<path fill="#FFFFFF" d="M25,224c0-0.55-0.451-1-1-1h-3c-0.551,0-1,0.45-1,1l0,0c0,0.55,0.449,1,1,1h3
				C24.549,225,25,224.55,25,224L25,224z"/>
			<path fill="#FFFFFF" d="M19,220c0-0.55-0.451-1-1-1h-5c-0.551,0-1,0.45-1,1l0,0c0,0.55,0.449,1,1,1h5
				C18.549,221,19,220.55,19,220L19,220z"/>
			<path fill="#FFFFFF" d="M41,219h-0.992l-2,2H41c0.549,0,1-0.45,1-1S41.549,219,41,219z"/>
			<path fill="#FFFFFF" d="M22.643,219H21c-0.551,0-1,0.45-1,1s0.449,1,1,1h3c0.182,0,0.346-0.063,0.492-0.15L22.643,219z"/>
		</g>
		<g>
			<g>
				<path fill="#333331" d="M31.016,247.23c-1.373-0.001-2.094-0.441-2.729-0.829c-0.455-0.278-0.848-0.519-1.377-0.519H3.004
					c-0.748,0-1.359-0.654-1.359-1.459c0.021-0.391,3.881-28,3.92-28.279c0.076-0.537,0.57-0.975,1.102-0.975h0.787l0.715-4.508
					c2.922,1.406,6.99,1.803,10.604,2.057c-0.055,0.439-0.018,0.895,0.107,1.333c-3.775-0.179-7.072-0.397-9.209-1.197l-0.121-0.046
					l-2.492,25.489l0.053,0.033c2.127,1.329,6.941,1.665,11.598,1.99c4.732,0.33,9.625,0.672,11.355,2.069l0.162,0.131v-16.699
					c0.297,0.079,0.562,0.117,0.826,0.117c0.262,0,0.533-0.039,0.828-0.116v16.698l0.162-0.131
					c1.729-1.398,6.617-1.739,11.346-2.069c4.654-0.325,9.465-0.661,11.592-1.99l0.053-0.033l-2.488-25.489l-0.121,0.046
					c-2.029,0.758-4.164,0.995-7.578,1.167l1.488-1.488c3.277-0.27,5.367-0.787,7.59-1.871l0.715,4.508h0.787
					c0.533,0,1.025,0.438,1.098,0.975c0.039,0.279,3.902,27.889,3.924,28.281c0,0.803-0.609,1.457-1.359,1.457H35.12
					c-0.529,0-0.922,0.24-1.377,0.519C33.108,246.789,32.387,247.229,31.016,247.23L31.016,247.23z"/>
			</g>
			<g>
				<path fill="#333331" d="M31.327,223.886c-0.346,0-0.67-0.134-0.912-0.377l-9.465-9.464c-0.502-0.504-0.502-1.324,0-1.828
					l3.275-3.277c0.244-0.244,0.57-0.379,0.916-0.379s0.67,0.135,0.91,0.379l5.33,5.213l12.176-12.184
					c0.242-0.244,0.566-0.379,0.912-0.379c0.348,0,0.672,0.135,0.914,0.378l3.281,3.282c0.504,0.503,0.504,1.322,0,1.826
					l-16.424,16.432C31.997,223.752,31.672,223.886,31.327,223.886z"/>
			</g>
			<g>
				<path fill="#333331" d="M43,235c0-0.55,0.449-1,1-1h5c0.549,0,1,0.45,1,1l0,0c0,0.55-0.451,1-1,1h-5C43.45,236,43,235.55,43,235
					L43,235z"/>
			</g>
			<g>
				<path fill="#333331" d="M37,235c0-0.55,0.449-1,1-1h3c0.549,0,1,0.45,1,1l0,0c0,0.55-0.451,1-1,1h-3C37.45,236,37,235.55,37,235
					L37,235z"/>
			</g>
			<g>
				<path fill="#333331" d="M43,231c0-0.55,0.449-1,1-1h5c0.549,0,1,0.45,1,1l0,0c0,0.55-0.451,1-1,1h-5C43.45,232,43,231.55,43,231
					L43,231z"/>
			</g>
			<g>
				<path fill="#333331" d="M37,231c0-0.55,0.449-1,1-1h3c0.549,0,1,0.45,1,1l0,0c0,0.55-0.451,1-1,1h-3C37.45,232,37,231.55,37,231
					L37,231z"/>
			</g>
			<g>
				<path fill="#333331" d="M43,227c0-0.55,0.449-1,1-1h5c0.549,0,1,0.45,1,1l0,0c0,0.55-0.451,1-1,1h-5C43.45,228,43,227.55,43,227
					L43,227z"/>
			</g>
			<g>
				<path fill="#333331" d="M37,227c0-0.55,0.449-1,1-1h3c0.549,0,1,0.45,1,1l0,0c0,0.55-0.451,1-1,1h-3C37.45,228,37,227.55,37,227
					L37,227z"/>
			</g>
			<g>
				<path fill="#333331" d="M43,223c0-0.55,0.449-1,1-1h5c0.549,0,1,0.45,1,1l0,0c0,0.55-0.451,1-1,1h-5C43.45,224,43,223.55,43,223
					L43,223z"/>
			</g>
			<g>
				<path fill="#333331" d="M37,223c0-0.55,0.449-1,1-1h3c0.549,0,1,0.45,1,1l0,0c0,0.55-0.451,1-1,1h-3C37.45,224,37,223.55,37,223
					L37,223z"/>
			</g>
			<g>
				<path fill="#333331" d="M43,219c0-0.55,0.449-1,1-1h5c0.549,0,1,0.45,1,1l0,0c0,0.55-0.451,1-1,1h-5C43.45,220,43,219.55,43,219
					L43,219z"/>
			</g>
			<g>
				<path fill="#333331" d="M19,235c0-0.55-0.451-1-1-1h-5c-0.551,0-1,0.45-1,1l0,0c0,0.55,0.449,1,1,1h5
					C18.549,236,19,235.55,19,235L19,235z"/>
			</g>
			<g>
				<path fill="#333331" d="M25,235c0-0.55-0.451-1-1-1h-3c-0.551,0-1,0.45-1,1l0,0c0,0.55,0.449,1,1,1h3
					C24.549,236,25,235.55,25,235L25,235z"/>
			</g>
			<g>
				<path fill="#333331" d="M19,231c0-0.55-0.451-1-1-1h-5c-0.551,0-1,0.45-1,1l0,0c0,0.55,0.449,1,1,1h5
					C18.549,232,19,231.55,19,231L19,231z"/>
			</g>
			<g>
				<path fill="#333331" d="M25,231c0-0.55-0.451-1-1-1h-3c-0.551,0-1,0.45-1,1l0,0c0,0.55,0.449,1,1,1h3
					C24.549,232,25,231.55,25,231L25,231z"/>
			</g>
			<g>
				<path fill="#333331" d="M19,227c0-0.55-0.451-1-1-1h-5c-0.551,0-1,0.45-1,1l0,0c0,0.55,0.449,1,1,1h5
					C18.549,228,19,227.55,19,227L19,227z"/>
			</g>
			<g>
				<path fill="#333331" d="M25,227c0-0.55-0.451-1-1-1h-3c-0.551,0-1,0.45-1,1l0,0c0,0.55,0.449,1,1,1h3
					C24.549,228,25,227.55,25,227L25,227z"/>
			</g>
			<g>
				<path fill="#333331" d="M19,223c0-0.55-0.451-1-1-1h-5c-0.551,0-1,0.45-1,1l0,0c0,0.55,0.449,1,1,1h5
					C18.549,224,19,223.55,19,223L19,223z"/>
			</g>
			<g>
				<path fill="#333331" d="M25,223c0-0.55-0.451-1-1-1h-3c-0.551,0-1,0.45-1,1l0,0c0,0.55,0.449,1,1,1h3
					C24.549,224,25,223.55,25,223L25,223z"/>
			</g>
			<g>
				<path fill="#333331" d="M19,219c0-0.55-0.451-1-1-1h-5c-0.551,0-1,0.45-1,1l0,0c0,0.55,0.449,1,1,1h5
					C18.549,220,19,219.55,19,219L19,219z"/>
			</g>
			<g>
				<path fill="#333331" d="M41,218h-0.992l-2,2H41c0.549,0,1-0.45,1-1S41.549,218,41,218z"/>
				<path fill="#333331" d="M22.643,218H21c-0.551,0-1,0.45-1,1s0.449,1,1,1h3c0.182,0,0.346-0.063,0.492-0.15L22.643,218z"/>
			</g>
		</g>
	</g>
	<rect x="0" y="200" opacity="0.5" fill="none" width="62" height="50"/>
</g>
<g>
	<g>
		<g opacity="0.85">
			<path fill="#FFFFFF" d="M26.676,290.418c-0.594,0-1.104-0.351-1.268-0.872c-0.094-0.29-0.062-0.599,0.086-0.871
				c0.166-0.302,0.463-0.528,0.814-0.623c0.207-0.054,0.414-0.132,0.627-0.222c0.178-0.08,0.369-0.119,0.566-0.119
				c0.508,0,0.979,0.271,1.197,0.691c0.145,0.279,0.166,0.596,0.062,0.891c-0.113,0.317-0.355,0.571-0.684,0.715
				c-0.344,0.152-0.689,0.275-1.027,0.365C26.926,290.402,26.803,290.418,26.676,290.418z M22.454,289.664
				c-0.271,0-0.521-0.068-0.744-0.202c-0.361-0.231-0.648-0.448-0.877-0.659c-0.25-0.229-0.389-0.531-0.391-0.854
				c0-0.322,0.135-0.625,0.381-0.854c0.248-0.231,0.58-0.358,0.938-0.358c0.355,0,0.689,0.125,0.941,0.353
				c0.143,0.132,0.303,0.25,0.488,0.368c0.303,0.186,0.504,0.467,0.566,0.794c0.061,0.308-0.012,0.619-0.203,0.876
				C23.307,289.463,22.895,289.664,22.454,289.664z M30.985,287.611c-0.352,0-0.697-0.131-0.947-0.359
				c-0.244-0.23-0.377-0.534-0.375-0.855c0.004-0.322,0.143-0.624,0.391-0.852l0.629-0.572c0.248-0.229,0.58-0.355,0.934-0.355
				c0.355,0,0.689,0.129,0.939,0.36s0.385,0.536,0.383,0.857c-0.002,0.319-0.141,0.618-0.389,0.842l-0.633,0.581
				C31.661,287.486,31.329,287.611,30.985,287.611z M20.54,285.334c-0.383-0.025-0.73-0.193-0.961-0.461
				c-0.201-0.234-0.297-0.525-0.273-0.82c0.02-0.292,0.053-0.582,0.092-0.873c0.078-0.608,0.65-1.066,1.334-1.066
				c0.043,0,0.088,0.002,0.133,0.006c0.365,0.039,0.699,0.218,0.916,0.492c0.193,0.245,0.279,0.546,0.24,0.846
				c-0.033,0.259-0.057,0.508-0.08,0.757c-0.045,0.632-0.623,1.126-1.314,1.126L20.54,285.334z M34.917,284.293
				c-0.416,0-0.811-0.182-1.059-0.486c-0.209-0.252-0.299-0.561-0.256-0.873c0.045-0.326,0.229-0.614,0.518-0.812
				c0.254-0.181,0.525-0.352,0.793-0.512c0.217-0.133,0.469-0.202,0.727-0.202c0.447,0,0.863,0.204,1.115,0.548
				c0.186,0.262,0.252,0.576,0.188,0.883c-0.066,0.322-0.27,0.601-0.57,0.783c-0.227,0.133-0.443,0.273-0.662,0.422
				C35.483,284.205,35.202,284.293,34.917,284.293z M21.092,280.451c-0.707,0-1.299-0.522-1.318-1.165
				c-0.008-0.232-0.033-0.468-0.064-0.696c-0.045-0.3,0.035-0.602,0.225-0.85c0.211-0.278,0.543-0.464,0.908-0.51
				c0.061-0.007,0.119-0.01,0.18-0.01c0.658,0,1.223,0.452,1.309,1.053c0.043,0.309,0.07,0.623,0.078,0.93
				c0.014,0.305-0.096,0.598-0.309,0.826c-0.24,0.258-0.59,0.412-0.959,0.422H21.092z M19.067,276.053
				c-0.355,0-0.674-0.115-0.92-0.334c-0.17-0.16-0.359-0.307-0.561-0.453c-0.283-0.199-0.463-0.488-0.504-0.814
				c-0.041-0.312,0.053-0.622,0.26-0.87c0.256-0.3,0.643-0.472,1.059-0.472c0.295,0,0.574,0.086,0.807,0.25
				c0.283,0.204,0.547,0.414,0.783,0.623c0.254,0.227,0.395,0.529,0.398,0.854c0.004,0.319-0.129,0.621-0.371,0.849
				C19.774,275.92,19.428,276.053,19.067,276.053z"/>
			<path fill="#FFFFFF" d="M7.333,295.76l5.654-35.617l12.914,3.258l5.438-2.329c0.004,1.041,0.17,2.097,0.492,3.138l-5.73,2.469
				l-10.598-2.607l-3.943,29.038l12.596,2.472l14.736-4.937l12.17,2.149l-2.902-23.963c1.105-0.914,2.016-2.162,2.621-3.554
				l4.32,31.886l-16.062-3.309l-14.711,4.918L7.333,295.76z"/>
			<path fill="#FFFFFF" d="M37.411,268.29c-2.564-1.588-4.068-4.279-4.068-7.254c0-4.634,3.66-8.403,8.158-8.403
				c4.496,0,8.154,3.77,8.154,8.403c0,2.974-1.502,5.666-4.02,7.204L41.5,280.702L37.411,268.29z M41.499,256.701
				c-2.32,0-4.207,1.944-4.207,4.335c0,2.386,1.887,4.327,4.207,4.327c2.322,0,4.211-1.941,4.211-4.327
				C45.709,258.646,43.821,256.701,41.499,256.701z"/>
		</g>
		<g>
			<g>
				<path fill="#333331" d="M26.676,289.418c-0.594,0-1.104-0.351-1.268-0.872c-0.094-0.29-0.062-0.599,0.086-0.871
					c0.166-0.302,0.463-0.528,0.814-0.623c0.207-0.054,0.414-0.132,0.627-0.222c0.178-0.08,0.369-0.119,0.566-0.119
					c0.508,0,0.979,0.271,1.197,0.691c0.145,0.279,0.166,0.596,0.062,0.891c-0.113,0.317-0.355,0.571-0.684,0.715
					c-0.344,0.152-0.689,0.275-1.027,0.365C26.926,289.402,26.803,289.418,26.676,289.418z M22.454,288.664
					c-0.271,0-0.521-0.068-0.744-0.202c-0.361-0.231-0.648-0.448-0.877-0.659c-0.25-0.229-0.389-0.531-0.391-0.854
					c0-0.322,0.135-0.625,0.381-0.854c0.248-0.231,0.58-0.358,0.938-0.358c0.355,0,0.689,0.125,0.941,0.353
					c0.143,0.132,0.303,0.25,0.488,0.368c0.303,0.186,0.504,0.467,0.566,0.794c0.061,0.308-0.012,0.619-0.203,0.876
					C23.307,288.463,22.895,288.664,22.454,288.664z M30.985,286.611c-0.352,0-0.697-0.131-0.947-0.359
					c-0.244-0.23-0.377-0.534-0.375-0.855c0.004-0.322,0.143-0.624,0.391-0.852l0.629-0.572c0.248-0.229,0.58-0.355,0.934-0.355
					c0.355,0,0.689,0.129,0.939,0.36s0.385,0.536,0.383,0.857c-0.002,0.319-0.141,0.618-0.389,0.842l-0.633,0.581
					C31.661,286.486,31.329,286.611,30.985,286.611z M20.54,284.334c-0.383-0.025-0.73-0.193-0.961-0.461
					c-0.201-0.234-0.297-0.525-0.273-0.82c0.02-0.292,0.053-0.582,0.092-0.873c0.078-0.608,0.65-1.066,1.334-1.066
					c0.043,0,0.088,0.002,0.133,0.006c0.365,0.039,0.699,0.218,0.916,0.492c0.193,0.245,0.279,0.546,0.24,0.846
					c-0.033,0.259-0.057,0.508-0.08,0.757c-0.045,0.632-0.623,1.126-1.314,1.126L20.54,284.334z M34.917,283.293
					c-0.416,0-0.811-0.182-1.059-0.486c-0.209-0.252-0.299-0.561-0.256-0.873c0.045-0.326,0.229-0.614,0.518-0.812
					c0.254-0.181,0.525-0.352,0.793-0.512c0.217-0.133,0.469-0.202,0.727-0.202c0.447,0,0.863,0.204,1.115,0.548
					c0.186,0.262,0.252,0.576,0.188,0.883c-0.066,0.322-0.27,0.601-0.57,0.783c-0.227,0.133-0.443,0.273-0.662,0.422
					C35.483,283.205,35.202,283.293,34.917,283.293z M21.092,279.451c-0.707,0-1.299-0.522-1.318-1.165
					c-0.008-0.232-0.033-0.468-0.064-0.696c-0.045-0.3,0.035-0.602,0.225-0.85c0.211-0.278,0.543-0.464,0.908-0.51
					c0.061-0.007,0.119-0.01,0.18-0.01c0.658,0,1.223,0.452,1.309,1.053c0.043,0.309,0.07,0.623,0.078,0.93
					c0.014,0.305-0.096,0.598-0.309,0.826c-0.24,0.258-0.59,0.412-0.959,0.422H21.092z M19.067,275.053
					c-0.355,0-0.674-0.115-0.92-0.334c-0.17-0.16-0.359-0.307-0.561-0.453c-0.283-0.199-0.463-0.488-0.504-0.814
					c-0.041-0.312,0.053-0.622,0.26-0.87c0.256-0.3,0.643-0.472,1.059-0.472c0.295,0,0.574,0.086,0.807,0.25
					c0.283,0.204,0.547,0.414,0.783,0.623c0.254,0.227,0.395,0.529,0.398,0.854c0.004,0.319-0.129,0.621-0.371,0.849
					C19.774,274.92,19.428,275.053,19.067,275.053z"/>
			</g>
			<g>
				<path fill="#333331" d="M7.333,294.76l5.654-35.617l12.914,3.258l5.438-2.329c0.004,1.041,0.17,2.097,0.492,3.138l-5.73,2.469
					l-10.598-2.607l-3.943,29.038l12.596,2.472l14.736-4.937l12.17,2.149l-2.902-23.963c1.105-0.914,2.016-2.162,2.621-3.554
					l4.32,31.886l-16.062-3.309l-14.711,4.918L7.333,294.76z"/>
			</g>
			<g>
				<path fill="#333331" d="M37.411,267.29c-2.564-1.588-4.068-4.279-4.068-7.254c0-4.634,3.66-8.403,8.158-8.403
					c4.496,0,8.154,3.77,8.154,8.403c0,2.974-1.502,5.666-4.02,7.204L41.5,279.702L37.411,267.29z M41.499,255.701
					c-2.32,0-4.207,1.944-4.207,4.335c0,2.386,1.887,4.327,4.207,4.327c2.322,0,4.211-1.941,4.211-4.327
					C45.709,257.646,43.821,255.701,41.499,255.701z"/>
			</g>
		</g>
	</g>
	<rect x="0" y="250" opacity="0.5" fill="none" width="62" height="50"/>
</g>
<g>
	<g>
		<g opacity="0.25">
			<path d="M88.676,288.418c-0.594,0-1.104-0.351-1.268-0.872c-0.092-0.29-0.061-0.599,0.088-0.871
				c0.164-0.302,0.461-0.529,0.812-0.623c0.207-0.054,0.416-0.133,0.627-0.223c0.18-0.078,0.369-0.118,0.566-0.118
				c0.51,0,0.98,0.271,1.199,0.691c0.143,0.279,0.166,0.595,0.061,0.89c-0.111,0.317-0.355,0.572-0.682,0.716
				c-0.346,0.152-0.691,0.274-1.029,0.365C88.926,288.402,88.803,288.418,88.676,288.418z M84.454,287.664
				c-0.271,0-0.521-0.068-0.742-0.202c-0.363-0.233-0.652-0.449-0.879-0.658c-0.25-0.229-0.389-0.532-0.389-0.855
				c-0.002-0.321,0.133-0.625,0.379-0.854c0.248-0.231,0.58-0.358,0.939-0.358c0.355,0,0.688,0.125,0.939,0.353
				c0.145,0.132,0.303,0.25,0.49,0.368c0.301,0.186,0.502,0.467,0.564,0.794c0.061,0.309-0.012,0.619-0.203,0.876
				C85.307,287.463,84.895,287.664,84.454,287.664z M92.985,285.612c-0.355,0-0.691-0.129-0.947-0.361
				c-0.244-0.229-0.377-0.533-0.373-0.855c0.002-0.321,0.141-0.623,0.391-0.85l0.627-0.573c0.25-0.229,0.58-0.355,0.934-0.355
				c0.357,0,0.689,0.128,0.939,0.36c0.25,0.23,0.385,0.535,0.383,0.857c-0.002,0.319-0.139,0.618-0.387,0.842l-0.635,0.581
				C93.661,285.486,93.331,285.612,92.985,285.612z M82.54,283.334c-0.383-0.025-0.73-0.193-0.961-0.462
				c-0.201-0.233-0.297-0.524-0.273-0.819c0.02-0.292,0.053-0.582,0.094-0.873c0.076-0.608,0.648-1.066,1.332-1.066
				c0.045,0,0.09,0.002,0.135,0.006c0.363,0.039,0.697,0.218,0.914,0.492c0.193,0.245,0.279,0.546,0.24,0.846
				c-0.033,0.259-0.057,0.507-0.08,0.756c-0.045,0.633-0.621,1.127-1.314,1.127L82.54,283.334z M96.917,282.293
				c-0.414,0-0.811-0.183-1.059-0.487c-0.209-0.251-0.299-0.561-0.256-0.872c0.045-0.325,0.229-0.614,0.518-0.812
				c0.256-0.181,0.527-0.352,0.795-0.512c0.217-0.132,0.467-0.202,0.727-0.202c0.445,0,0.861,0.205,1.113,0.548
				c0.186,0.261,0.252,0.575,0.189,0.882c-0.068,0.323-0.271,0.602-0.572,0.783c-0.227,0.134-0.443,0.274-0.662,0.423
				C97.483,282.204,97.202,282.293,96.917,282.293z M83.092,278.452c-0.707,0-1.299-0.523-1.318-1.166
				c-0.008-0.232-0.033-0.468-0.064-0.696c-0.045-0.3,0.035-0.602,0.225-0.85c0.213-0.278,0.543-0.464,0.91-0.509
				c0.059-0.008,0.119-0.012,0.178-0.012c0.66,0,1.223,0.453,1.311,1.054c0.041,0.309,0.068,0.623,0.076,0.931
				c0.014,0.304-0.096,0.597-0.309,0.826c-0.24,0.258-0.59,0.411-0.959,0.422H83.092z M81.067,274.054
				c-0.355,0-0.674-0.116-0.92-0.335c-0.168-0.16-0.357-0.308-0.561-0.452c-0.283-0.2-0.461-0.489-0.504-0.814
				c-0.041-0.313,0.053-0.623,0.26-0.871c0.256-0.3,0.643-0.472,1.059-0.472c0.295,0,0.574,0.087,0.807,0.251
				c0.283,0.203,0.547,0.413,0.783,0.623c0.254,0.226,0.395,0.528,0.398,0.852c0.004,0.319-0.127,0.622-0.371,0.85
				C81.776,273.919,81.428,274.054,81.067,274.054z"/>
			<path d="M69.334,293.76l5.652-35.616l12.914,3.256l5.438-2.328c0.004,1.039,0.17,2.094,0.494,3.138l-5.73,2.469l-10.6-2.607
				l-3.943,29.038l12.596,2.472l14.736-4.937l12.17,2.15l-2.902-23.963c1.107-0.917,2.018-2.163,2.621-3.555l4.322,31.887
				l-16.062-3.31l-14.713,4.919L69.334,293.76z"/>
			<path d="M99.411,266.29c-2.562-1.588-4.068-4.279-4.068-7.254c0-4.634,3.66-8.403,8.158-8.403c4.496,0,8.154,3.77,8.154,8.403
				c0,2.973-1.502,5.666-4.02,7.204l-4.135,12.462L99.411,266.29z M103.499,254.701c-2.32,0-4.207,1.944-4.207,4.335
				c0,2.386,1.887,4.326,4.207,4.326c2.322,0,4.211-1.94,4.211-4.326C107.709,256.646,105.821,254.701,103.499,254.701z"/>
		</g>
		<g>
			<g>
				<path fill="#FFFFFF" d="M88.676,289.418c-0.594,0-1.104-0.351-1.268-0.872c-0.092-0.29-0.061-0.599,0.088-0.871
					c0.164-0.302,0.461-0.529,0.812-0.623c0.207-0.054,0.416-0.133,0.627-0.223c0.18-0.078,0.369-0.118,0.566-0.118
					c0.51,0,0.98,0.271,1.199,0.691c0.143,0.279,0.166,0.595,0.061,0.89c-0.111,0.317-0.355,0.572-0.682,0.716
					c-0.346,0.152-0.691,0.274-1.029,0.365C88.926,289.402,88.803,289.418,88.676,289.418z M84.454,288.664
					c-0.271,0-0.521-0.068-0.742-0.202c-0.363-0.233-0.652-0.449-0.879-0.658c-0.25-0.229-0.389-0.532-0.389-0.855
					c-0.002-0.321,0.133-0.625,0.379-0.854c0.248-0.231,0.58-0.358,0.939-0.358c0.355,0,0.688,0.125,0.939,0.353
					c0.145,0.132,0.303,0.25,0.49,0.368c0.301,0.186,0.502,0.467,0.564,0.794c0.061,0.309-0.012,0.619-0.203,0.876
					C85.307,288.463,84.895,288.664,84.454,288.664z M92.985,286.612c-0.355,0-0.691-0.129-0.947-0.361
					c-0.244-0.229-0.377-0.533-0.373-0.855c0.002-0.321,0.141-0.623,0.391-0.85l0.627-0.573c0.25-0.229,0.58-0.355,0.934-0.355
					c0.357,0,0.689,0.128,0.939,0.36c0.25,0.23,0.385,0.535,0.383,0.857c-0.002,0.319-0.139,0.618-0.387,0.842l-0.635,0.581
					C93.661,286.486,93.331,286.612,92.985,286.612z M82.54,284.334c-0.383-0.025-0.73-0.193-0.961-0.462
					c-0.201-0.233-0.297-0.524-0.273-0.819c0.02-0.292,0.053-0.582,0.094-0.873c0.076-0.608,0.648-1.066,1.332-1.066
					c0.045,0,0.09,0.002,0.135,0.006c0.363,0.039,0.697,0.218,0.914,0.492c0.193,0.245,0.279,0.546,0.24,0.846
					c-0.033,0.259-0.057,0.507-0.08,0.756c-0.045,0.633-0.621,1.127-1.314,1.127L82.54,284.334z M96.917,283.293
					c-0.414,0-0.811-0.183-1.059-0.487c-0.209-0.251-0.299-0.561-0.256-0.872c0.045-0.325,0.229-0.614,0.518-0.812
					c0.256-0.181,0.527-0.352,0.795-0.512c0.217-0.132,0.467-0.202,0.727-0.202c0.445,0,0.861,0.205,1.113,0.548
					c0.186,0.261,0.252,0.575,0.189,0.882c-0.068,0.323-0.271,0.602-0.572,0.783c-0.227,0.134-0.443,0.274-0.662,0.423
					C97.483,283.204,97.202,283.293,96.917,283.293z M83.092,279.452c-0.707,0-1.299-0.523-1.318-1.166
					c-0.008-0.232-0.033-0.468-0.064-0.696c-0.045-0.3,0.035-0.602,0.225-0.85c0.213-0.278,0.543-0.464,0.91-0.509
					c0.059-0.008,0.119-0.012,0.178-0.012c0.66,0,1.223,0.453,1.311,1.054c0.041,0.309,0.068,0.623,0.076,0.931
					c0.014,0.304-0.096,0.597-0.309,0.826c-0.24,0.258-0.59,0.411-0.959,0.422H83.092z M81.067,275.054
					c-0.355,0-0.674-0.116-0.92-0.335c-0.168-0.16-0.357-0.308-0.561-0.452c-0.283-0.2-0.461-0.489-0.504-0.814
					c-0.041-0.313,0.053-0.623,0.26-0.871c0.256-0.3,0.643-0.472,1.059-0.472c0.295,0,0.574,0.087,0.807,0.251
					c0.283,0.203,0.547,0.413,0.783,0.623c0.254,0.226,0.395,0.528,0.398,0.852c0.004,0.319-0.127,0.622-0.371,0.85
					C81.776,274.919,81.428,275.054,81.067,275.054z"/>
			</g>
			<g>
				<path fill="#FFFFFF" d="M69.334,294.76l5.652-35.616l12.914,3.256l5.438-2.328c0.004,1.039,0.17,2.094,0.494,3.138l-5.73,2.469
					l-10.6-2.607l-3.943,29.038l12.596,2.472l14.736-4.937l12.17,2.15l-2.902-23.963c1.107-0.917,2.018-2.163,2.621-3.555
					l4.322,31.887l-16.062-3.31l-14.713,4.919L69.334,294.76z"/>
			</g>
			<g>
				<path fill="#FFFFFF" d="M99.411,267.29c-2.562-1.588-4.068-4.279-4.068-7.254c0-4.634,3.66-8.403,8.158-8.403
					c4.496,0,8.154,3.77,8.154,8.403c0,2.973-1.502,5.666-4.02,7.204l-4.135,12.462L99.411,267.29z M103.499,255.701
					c-2.32,0-4.207,1.944-4.207,4.335c0,2.386,1.887,4.326,4.207,4.326c2.322,0,4.211-1.94,4.211-4.326
					C107.709,257.646,105.821,255.701,103.499,255.701z"/>
			</g>
		</g>
	</g>
	<rect x="62" y="250" opacity="0.5" fill="none" width="62" height="50"/>
</g>
<g>
	<g>
		<g opacity="0.25">
			<path d="M93.016,246.23c-1.373-0.001-2.094-0.44-2.729-0.829c-0.455-0.278-0.848-0.518-1.377-0.518H65.004
				c-0.748,0-1.359-0.655-1.359-1.46c0.021-0.391,3.881-28,3.92-28.279c0.078-0.537,0.572-0.975,1.102-0.975h0.789l0.713-4.508
				c2.922,1.407,6.99,1.803,10.605,2.057c-0.057,0.44-0.02,0.896,0.107,1.333c-3.777-0.178-7.072-0.397-9.211-1.197l-0.121-0.046
				l-2.492,25.489l0.053,0.033c2.127,1.33,6.943,1.666,11.6,1.99c4.73,0.33,9.625,0.672,11.354,2.069l0.162,0.131v-16.699
				c0.295,0.078,0.566,0.116,0.826,0.116c0.262,0,0.533-0.037,0.828-0.115v16.699l0.162-0.132c1.729-1.397,6.617-1.739,11.348-2.069
				c4.652-0.324,9.465-0.66,11.59-1.99l0.053-0.033l-2.486-25.489l-0.123,0.046c-2.027,0.758-4.162,0.995-7.578,1.168l1.488-1.489
				c3.279-0.27,5.369-0.786,7.592-1.871l0.715,4.508h0.785c0.535,0,1.027,0.438,1.098,0.975c0.041,0.279,3.902,27.889,3.924,28.282
				c0,0.802-0.609,1.457-1.359,1.457H97.12c-0.527,0-0.92,0.239-1.375,0.518C95.11,245.789,94.389,246.229,93.016,246.23
				L93.016,246.23z"/>
			<path d="M93.327,222.886c-0.346,0-0.67-0.134-0.91-0.377l-9.467-9.464c-0.5-0.505-0.5-1.324,0.002-1.828l3.273-3.277
				c0.244-0.244,0.57-0.379,0.916-0.379s0.67,0.135,0.912,0.379l5.328,5.213l12.176-12.185c0.242-0.243,0.566-0.378,0.914-0.378
				c0.346,0,0.67,0.135,0.912,0.378l3.281,3.281c0.242,0.243,0.377,0.567,0.377,0.914s-0.135,0.671-0.377,0.914l-16.424,16.432
				C93.999,222.752,93.674,222.886,93.327,222.886z"/>
			<path d="M105,234c0-0.55,0.451-1,1-1h5c0.551,0,1,0.45,1,1l0,0c0,0.55-0.449,1-1,1h-5C105.452,235,105,234.55,105,234L105,234z"
				/>
			<path d="M99,234c0-0.55,0.451-1,1-1h3c0.551,0,1,0.45,1,1l0,0c0,0.55-0.449,1-1,1h-3C99.452,235,99,234.55,99,234L99,234z"/>
			<path d="M105,230c0-0.55,0.451-1,1-1h5c0.551,0,1,0.45,1,1l0,0c0,0.55-0.449,1-1,1h-5C105.452,231,105,230.55,105,230L105,230z"
				/>
			<path d="M99,230c0-0.55,0.451-1,1-1h3c0.551,0,1,0.45,1,1l0,0c0,0.55-0.449,1-1,1h-3C99.452,231,99,230.55,99,230L99,230z"/>
			<path d="M105,226c0-0.55,0.451-1,1-1h5c0.551,0,1,0.45,1,1l0,0c0,0.55-0.449,1-1,1h-5C105.452,227,105,226.55,105,226L105,226z"
				/>
			<path d="M99,226c0-0.55,0.451-1,1-1h3c0.551,0,1,0.45,1,1l0,0c0,0.55-0.449,1-1,1h-3C99.452,227,99,226.55,99,226L99,226z"/>
			<path d="M105,222c0-0.55,0.451-1,1-1h5c0.551,0,1,0.45,1,1l0,0c0,0.55-0.449,1-1,1h-5C105.452,223,105,222.55,105,222L105,222z"
				/>
			<path d="M99,222c0-0.55,0.451-1,1-1h3c0.551,0,1,0.45,1,1l0,0c0,0.55-0.449,1-1,1h-3C99.452,223,99,222.55,99,222L99,222z"/>
			<path d="M105,218c0-0.55,0.451-1,1-1h5c0.551,0,1,0.45,1,1l0,0c0,0.55-0.449,1-1,1h-5C105.452,219,105,218.55,105,218L105,218z"
				/>
			<path d="M81,234c0-0.55-0.449-1-1-1h-5c-0.549,0-1,0.45-1,1l0,0c0,0.55,0.451,1,1,1h5C80.551,235,81,234.55,81,234L81,234z"/>
			<path d="M87,234c0-0.55-0.449-1-1-1h-3c-0.549,0-1,0.45-1,1l0,0c0,0.55,0.451,1,1,1h3C86.551,235,87,234.55,87,234L87,234z"/>
			<path d="M81,230c0-0.55-0.449-1-1-1h-5c-0.549,0-1,0.45-1,1l0,0c0,0.55,0.451,1,1,1h5C80.551,231,81,230.55,81,230L81,230z"/>
			<path d="M87,230c0-0.55-0.449-1-1-1h-3c-0.549,0-1,0.45-1,1l0,0c0,0.55,0.451,1,1,1h3C86.551,231,87,230.55,87,230L87,230z"/>
			<path d="M81,226c0-0.55-0.449-1-1-1h-5c-0.549,0-1,0.45-1,1l0,0c0,0.55,0.451,1,1,1h5C80.551,227,81,226.55,81,226L81,226z"/>
			<path d="M87,226c0-0.55-0.449-1-1-1h-3c-0.549,0-1,0.45-1,1l0,0c0,0.55,0.451,1,1,1h3C86.551,227,87,226.55,87,226L87,226z"/>
			<path d="M81,222c0-0.55-0.449-1-1-1h-5c-0.549,0-1,0.45-1,1l0,0c0,0.55,0.451,1,1,1h5C80.551,223,81,222.55,81,222L81,222z"/>
			<path d="M87,222c0-0.55-0.449-1-1-1h-3c-0.549,0-1,0.45-1,1l0,0c0,0.55,0.451,1,1,1h3C86.551,223,87,222.55,87,222L87,222z"/>
			<path d="M81,218c0-0.55-0.449-1-1-1h-5c-0.549,0-1,0.45-1,1l0,0c0,0.55,0.451,1,1,1h5C80.551,219,81,218.55,81,218L81,218z"/>
			<path d="M103,217h-0.992l-2,2H103c0.549,0,1-0.45,1-1S103.549,217,103,217z"/>
			<path d="M84.643,217H83c-0.551,0-1,0.45-1,1s0.449,1,1,1h3c0.182,0,0.346-0.063,0.492-0.15L84.643,217z"/>
		</g>
		<g>
			<g>
				<path fill="#FFFFFF" d="M93.016,247.23c-1.373-0.001-2.094-0.44-2.729-0.829c-0.455-0.278-0.848-0.518-1.377-0.518H65.004
					c-0.748,0-1.359-0.655-1.359-1.46c0.021-0.391,3.881-28,3.92-28.279c0.078-0.537,0.572-0.975,1.102-0.975h0.789l0.713-4.508
					c2.922,1.407,6.99,1.803,10.605,2.057c-0.057,0.44-0.02,0.896,0.107,1.333c-3.777-0.178-7.072-0.397-9.211-1.197l-0.121-0.046
					l-2.492,25.489l0.053,0.033c2.127,1.33,6.943,1.666,11.6,1.99c4.73,0.33,9.625,0.672,11.354,2.069l0.162,0.131v-16.699
					c0.295,0.078,0.566,0.116,0.826,0.116c0.262,0,0.533-0.037,0.828-0.115v16.699l0.162-0.132
					c1.729-1.397,6.617-1.739,11.348-2.069c4.652-0.324,9.465-0.66,11.59-1.99l0.053-0.033l-2.486-25.489l-0.123,0.046
					c-2.027,0.758-4.162,0.995-7.578,1.168l1.488-1.489c3.279-0.27,5.369-0.786,7.592-1.871l0.715,4.508h0.785
					c0.535,0,1.027,0.438,1.098,0.975c0.041,0.279,3.902,27.889,3.924,28.282c0,0.802-0.609,1.457-1.359,1.457H97.12
					c-0.527,0-0.92,0.239-1.375,0.518C95.11,246.789,94.389,247.229,93.016,247.23L93.016,247.23z"/>
			</g>
			<g>
				<path fill="#FFFFFF" d="M93.327,223.886c-0.346,0-0.67-0.134-0.91-0.377l-9.467-9.464c-0.5-0.505-0.5-1.324,0.002-1.828
					l3.273-3.277c0.244-0.244,0.57-0.379,0.916-0.379s0.67,0.135,0.912,0.379l5.328,5.213l12.176-12.185
					c0.242-0.243,0.566-0.378,0.914-0.378c0.346,0,0.67,0.135,0.912,0.378l3.281,3.281c0.242,0.243,0.377,0.567,0.377,0.914
					s-0.135,0.671-0.377,0.914l-16.424,16.432C93.999,223.752,93.674,223.886,93.327,223.886z"/>
			</g>
			<g>
				<path fill="#FFFFFF" d="M105,235c0-0.55,0.451-1,1-1h5c0.551,0,1,0.45,1,1l0,0c0,0.55-0.449,1-1,1h-5
					C105.452,236,105,235.55,105,235L105,235z"/>
			</g>
			<g>
				<path fill="#FFFFFF" d="M99,235c0-0.55,0.451-1,1-1h3c0.551,0,1,0.45,1,1l0,0c0,0.55-0.449,1-1,1h-3
					C99.452,236,99,235.55,99,235L99,235z"/>
			</g>
			<g>
				<path fill="#FFFFFF" d="M105,231c0-0.55,0.451-1,1-1h5c0.551,0,1,0.45,1,1l0,0c0,0.55-0.449,1-1,1h-5
					C105.452,232,105,231.55,105,231L105,231z"/>
			</g>
			<g>
				<path fill="#FFFFFF" d="M99,231c0-0.55,0.451-1,1-1h3c0.551,0,1,0.45,1,1l0,0c0,0.55-0.449,1-1,1h-3
					C99.452,232,99,231.55,99,231L99,231z"/>
			</g>
			<g>
				<path fill="#FFFFFF" d="M105,227c0-0.55,0.451-1,1-1h5c0.551,0,1,0.45,1,1l0,0c0,0.55-0.449,1-1,1h-5
					C105.452,228,105,227.55,105,227L105,227z"/>
			</g>
			<g>
				<path fill="#FFFFFF" d="M99,227c0-0.55,0.451-1,1-1h3c0.551,0,1,0.45,1,1l0,0c0,0.55-0.449,1-1,1h-3
					C99.452,228,99,227.55,99,227L99,227z"/>
			</g>
			<g>
				<path fill="#FFFFFF" d="M105,223c0-0.55,0.451-1,1-1h5c0.551,0,1,0.45,1,1l0,0c0,0.55-0.449,1-1,1h-5
					C105.452,224,105,223.55,105,223L105,223z"/>
			</g>
			<g>
				<path fill="#FFFFFF" d="M99,223c0-0.55,0.451-1,1-1h3c0.551,0,1,0.45,1,1l0,0c0,0.55-0.449,1-1,1h-3
					C99.452,224,99,223.55,99,223L99,223z"/>
			</g>
			<g>
				<path fill="#FFFFFF" d="M105,219c0-0.55,0.451-1,1-1h5c0.551,0,1,0.45,1,1l0,0c0,0.55-0.449,1-1,1h-5
					C105.452,220,105,219.55,105,219L105,219z"/>
			</g>
			<g>
				<path fill="#FFFFFF" d="M81,235c0-0.55-0.449-1-1-1h-5c-0.549,0-1,0.45-1,1l0,0c0,0.55,0.451,1,1,1h5
					C80.551,236,81,235.55,81,235L81,235z"/>
			</g>
			<g>
				<path fill="#FFFFFF" d="M87,235c0-0.55-0.449-1-1-1h-3c-0.549,0-1,0.45-1,1l0,0c0,0.55,0.451,1,1,1h3
					C86.551,236,87,235.55,87,235L87,235z"/>
			</g>
			<g>
				<path fill="#FFFFFF" d="M81,231c0-0.55-0.449-1-1-1h-5c-0.549,0-1,0.45-1,1l0,0c0,0.55,0.451,1,1,1h5
					C80.551,232,81,231.55,81,231L81,231z"/>
			</g>
			<g>
				<path fill="#FFFFFF" d="M87,231c0-0.55-0.449-1-1-1h-3c-0.549,0-1,0.45-1,1l0,0c0,0.55,0.451,1,1,1h3
					C86.551,232,87,231.55,87,231L87,231z"/>
			</g>
			<g>
				<path fill="#FFFFFF" d="M81,227c0-0.55-0.449-1-1-1h-5c-0.549,0-1,0.45-1,1l0,0c0,0.55,0.451,1,1,1h5
					C80.551,228,81,227.55,81,227L81,227z"/>
			</g>
			<g>
				<path fill="#FFFFFF" d="M87,227c0-0.55-0.449-1-1-1h-3c-0.549,0-1,0.45-1,1l0,0c0,0.55,0.451,1,1,1h3
					C86.551,228,87,227.55,87,227L87,227z"/>
			</g>
			<g>
				<path fill="#FFFFFF" d="M81,223c0-0.55-0.449-1-1-1h-5c-0.549,0-1,0.45-1,1l0,0c0,0.55,0.451,1,1,1h5
					C80.551,224,81,223.55,81,223L81,223z"/>
			</g>
			<g>
				<path fill="#FFFFFF" d="M87,223c0-0.55-0.449-1-1-1h-3c-0.549,0-1,0.45-1,1l0,0c0,0.55,0.451,1,1,1h3
					C86.551,224,87,223.55,87,223L87,223z"/>
			</g>
			<g>
				<path fill="#FFFFFF" d="M81,219c0-0.55-0.449-1-1-1h-5c-0.549,0-1,0.45-1,1l0,0c0,0.55,0.451,1,1,1h5
					C80.551,220,81,219.55,81,219L81,219z"/>
			</g>
			<g>
				<path fill="#FFFFFF" d="M103,218h-0.992l-2,2H103c0.549,0,1-0.45,1-1S103.549,218,103,218z"/>
				<path fill="#FFFFFF" d="M84.643,218H83c-0.551,0-1,0.45-1,1s0.449,1,1,1h3c0.182,0,0.346-0.063,0.492-0.15L84.643,218z"/>
			</g>
		</g>
	</g>
	<rect x="62" y="200" opacity="0.5" fill="none" width="62" height="50"/>
</g>
<g>
	<g>
		<g opacity="0.25">
			<path d="M121,182.723c-0.697,0-1.395-0.266-1.926-0.798l-7-7c-1.062-1.063-1.062-2.786,0-3.85s2.787-1.063,3.85,0l7,7
				c1.064,1.063,1.064,2.786,0,3.85C122.393,182.457,121.696,182.723,121,182.723z"/>
			<path d="M105.499,176.808c-6.785,0-12.307-5.521-12.307-12.308s5.521-12.308,12.307-12.308c6.787,0,12.309,5.521,12.309,12.308
				S112.286,176.808,105.499,176.808z M105.499,156.808c-4.24,0-7.691,3.45-7.691,7.692s3.451,7.692,7.691,7.692
				c4.242,0,7.693-3.45,7.693-7.692S109.741,156.808,105.499,156.808z"/>
			<path d="M65.25,194.807c-1.604,0-3.062-1.527-3.062-3.204v-1.688c0-0.689,0.496-0.964,1.127-1.312
				c0.133-0.073,0.27-0.149,0.408-0.231c0.791-0.471,3.373-1.665,3.4-1.678l0.096-0.044v-21.577c0-2.696,2.1-4.89,4.68-4.89h18.789
				l-0.121,0.441c-0.248,0.896-0.385,1.389-0.385,2.606c0,0.186,0.012,0.341,0.023,0.504l0.006,0.11H70.797v23.364h33.387v-6.991
				h3.703v6.43l0.094,0.045c0.025,0.013,2.518,1.208,3.311,1.679c0.137,0.083,0.275,0.159,0.41,0.232
				c0.629,0.348,1.125,0.622,1.125,1.311v1.688c0,1.677-1.461,3.204-3.066,3.204H65.25z M81.834,190.008
				c0,1.232,0.893,2.162,2.074,2.162h8.205c1.186,0,2.078-0.93,2.078-2.162v-0.165H81.834V190.008z"/>
		</g>
		<g>
			<path fill="#FFFFFF" d="M121,183.723c-0.697,0-1.395-0.266-1.926-0.798l-7-7c-1.062-1.063-1.062-2.786,0-3.85s2.787-1.063,3.85,0
				l7,7c1.064,1.063,1.064,2.786,0,3.85C122.393,183.457,121.696,183.723,121,183.723z"/>
			<path fill="#FFFFFF" d="M105.499,177.808c-6.785,0-12.307-5.521-12.307-12.308s5.521-12.308,12.307-12.308
				c6.787,0,12.309,5.521,12.309,12.308S112.286,177.808,105.499,177.808z M105.499,157.808c-4.24,0-7.691,3.45-7.691,7.692
				s3.451,7.692,7.691,7.692c4.242,0,7.693-3.45,7.693-7.692S109.741,157.808,105.499,157.808z"/>
			<g>
				<path fill="#FFFFFF" d="M65.25,195.807c-1.604,0-3.062-1.527-3.062-3.204v-1.688c0-0.689,0.496-0.964,1.127-1.312
					c0.133-0.073,0.27-0.149,0.408-0.231c0.791-0.471,3.373-1.665,3.4-1.678l0.096-0.044v-21.577c0-2.696,2.1-4.89,4.68-4.89h18.789
					l-0.121,0.441c-0.248,0.896-0.385,1.389-0.385,2.606c0,0.186,0.012,0.341,0.023,0.504l0.006,0.11H70.797v23.364h33.387v-6.991
					h3.703v6.43l0.094,0.045c0.025,0.013,2.518,1.208,3.311,1.679c0.137,0.083,0.275,0.159,0.41,0.232
					c0.629,0.348,1.125,0.622,1.125,1.311v1.688c0,1.677-1.461,3.204-3.066,3.204H65.25z M81.834,191.008
					c0,1.232,0.893,2.162,2.074,2.162h8.205c1.186,0,2.078-0.93,2.078-2.162v-0.165H81.834V191.008z"/>
			</g>
		</g>
	</g>
	<rect x="62" y="150" opacity="0.5" fill="none" width="62" height="50"/>
</g>
<g>
	<g>
		<g opacity="0.25">
			<path d="M66.764,133.9c-0.918,0-1.664-0.746-1.664-1.664v-14.473c0-0.918,0.746-1.664,1.664-1.664h16.473
				c0.918,0,1.664,0.746,1.664,1.664v14.473c0,0.918-0.746,1.664-1.664,1.664H66.764z"/>
			<path d="M104.764,118.9c-0.918,0-1.664-0.746-1.664-1.664v-12.473c0-0.918,0.746-1.664,1.664-1.664h14.473
				c0.918,0,1.664,0.746,1.664,1.664v12.473c0,0.918-0.746,1.664-1.664,1.664H104.764z"/>
			<path d="M104.764,146.9c-0.918,0-1.664-0.746-1.664-1.664v-12.473c0-0.918,0.746-1.664,1.664-1.664h14.473
				c0.918,0,1.664,0.746,1.664,1.664v12.473c0,0.918-0.746,1.664-1.664,1.664H104.764z"/>
			<rect x="84" y="122" width="11" height="6"/>
			<path d="M104,141h-8.559c-1.346,0-2.441-1.096-2.441-2.441v-27.117c0-1.346,1.096-2.441,2.441-2.441H104v4h-7v24h7V141z"/>
			<path fill="none" stroke="#000000" stroke-width="3.5269" stroke-miterlimit="10" d="M81.229,123.604"/>
			<path fill="none" stroke="#000000" stroke-width="3.5269" stroke-miterlimit="10" d="M81.229,123.604"/>
		</g>
		<g>
			<path fill="#FFFFFF" d="M66.764,134.9c-0.918,0-1.664-0.746-1.664-1.664v-14.473c0-0.918,0.746-1.664,1.664-1.664h16.473
				c0.918,0,1.664,0.746,1.664,1.664v14.473c0,0.918-0.746,1.664-1.664,1.664H66.764z"/>
			<path fill="#FFFFFF" d="M104.764,119.9c-0.918,0-1.664-0.746-1.664-1.664v-12.473c0-0.918,0.746-1.664,1.664-1.664h14.473
				c0.918,0,1.664,0.746,1.664,1.664v12.473c0,0.918-0.746,1.664-1.664,1.664H104.764z"/>
			<path fill="#FFFFFF" d="M104.764,147.9c-0.918,0-1.664-0.746-1.664-1.664v-12.473c0-0.918,0.746-1.664,1.664-1.664h14.473
				c0.918,0,1.664,0.746,1.664,1.664v12.473c0,0.918-0.746,1.664-1.664,1.664H104.764z"/>
			<rect x="84" y="123" fill="#FFFFFF" width="11" height="6"/>
			<path fill="#FFFFFF" d="M104,142h-8.559c-1.346,0-2.441-1.096-2.441-2.441v-27.117c0-1.346,1.096-2.441,2.441-2.441H104v4h-7v24
				h7V142z"/>
			<path fill="none" stroke="#58595B" stroke-width="3.5269" stroke-miterlimit="10" d="M81.229,124.604"/>
			<path fill="none" stroke="#58595B" stroke-width="3.5269" stroke-miterlimit="10" d="M81.229,124.604"/>
		</g>
	</g>
	<rect x="62" y="100" opacity="0.5" fill="none" width="62" height="50"/>
</g>
<g>
	<g>
		<g opacity="0.25">
			<path d="M93,87.9c-7.113,0-12.9-5.788-12.9-12.901C80.1,67.887,85.887,62.1,93,62.1s12.9,5.787,12.9,12.899
				C105.901,82.112,100.114,87.9,93,87.9z M93,63.924c-6.109,0-11.079,4.968-11.079,11.075c0,6.109,4.97,11.079,11.079,11.079
				s11.079-4.97,11.079-11.079C104.08,68.892,99.11,63.924,93,63.924z"/>
			<path d="M93,83.902c-4.908,0-8.901-3.994-8.901-8.903c0-4.907,3.993-8.899,8.901-8.899s8.901,3.992,8.901,8.899
				C101.902,79.908,97.909,83.902,93,83.902z M98.965,76.579c-0.585,0-1.255,0.322-1.793,0.863
				c-0.871,0.869-1.119,2.038-0.554,2.606c0.2,0.2,0.481,0.307,0.814,0.307c0.585,0,1.255-0.321,1.794-0.86
				c0.885-0.889,1.127-2.034,0.553-2.608C99.58,76.686,99.297,76.579,98.965,76.579z M90.742,68.059c-1.065,0-2.259,0.557-3.19,1.49
				c-1.571,1.571-1.961,3.74-0.869,4.835c0.41,0.409,0.979,0.625,1.645,0.625c1.064,0,2.258-0.556,3.192-1.487
				c1.567-1.573,1.956-3.744,0.867-4.84C91.977,68.273,91.408,68.059,90.742,68.059z"/>
			<path d="M74.035,93.717c-3.597,0-6.751-3.429-6.751-7.337V63.903c0-0.894,0.662-1.62,1.476-1.62h1.524v-1.386
				c0-0.896,0.662-1.624,1.477-1.624h5.482c0.812,0,1.475,0.729,1.475,1.624v1.386H79c1.824,0,3.725-1.041,5.563-2.048
				c1.764-0.966,3.583-1.962,5.226-1.962h21.177c3.597,0,6.751,3.43,6.751,7.339V86.38c0,3.908-3.154,7.337-6.751,7.337H74.035z
				 M69.883,86.38c0,2.436,2.018,4.737,4.151,4.737h36.932c2.134,0,4.151-2.302,4.151-4.737V69.9h-10.444
				c-2.038-4.646-6.612-7.644-11.673-7.644s-9.636,2.997-11.674,7.644H69.883V86.38z M106,61.9c-0.606,0-1.1,0.493-1.1,1.1v2
				c0,0.606,0.493,1.1,1.1,1.1h5c0.606,0,1.1-0.493,1.1-1.1v-2c0-0.606-0.493-1.1-1.1-1.1H106z"/>
		</g>
		<g>
			<g>
				<path fill="#FFFFFF" d="M93,88.9c-7.113,0-12.9-5.788-12.9-12.901C80.1,68.887,85.887,63.1,93,63.1s12.9,5.787,12.9,12.899
					C105.901,83.112,100.114,88.9,93,88.9z M93,64.924c-6.109,0-11.079,4.968-11.079,11.075c0,6.109,4.97,11.079,11.079,11.079
					s11.079-4.97,11.079-11.079C104.08,69.892,99.11,64.924,93,64.924z"/>
			</g>
			<g>
				<path fill="#FFFFFF" d="M93,84.902c-4.908,0-8.901-3.994-8.901-8.903c0-4.907,3.993-8.899,8.901-8.899s8.901,3.992,8.901,8.899
					C101.902,80.908,97.909,84.902,93,84.902z M98.965,77.579c-0.585,0-1.255,0.322-1.793,0.863
					c-0.871,0.869-1.119,2.038-0.554,2.606c0.2,0.2,0.481,0.307,0.814,0.307c0.585,0,1.255-0.321,1.794-0.86
					c0.885-0.889,1.127-2.034,0.553-2.608C99.58,77.686,99.297,77.579,98.965,77.579z M90.742,69.059
					c-1.065,0-2.259,0.557-3.19,1.49c-1.571,1.571-1.961,3.74-0.869,4.835c0.41,0.409,0.979,0.625,1.645,0.625
					c1.064,0,2.258-0.556,3.192-1.487c1.567-1.573,1.956-3.744,0.867-4.84C91.977,69.273,91.408,69.059,90.742,69.059z"/>
			</g>
			<g>
				<path fill="#FFFFFF" d="M74.035,94.717c-3.597,0-6.751-3.429-6.751-7.337V64.903c0-0.894,0.662-1.62,1.476-1.62h1.524v-1.386
					c0-0.896,0.662-1.624,1.477-1.624h5.482c0.812,0,1.475,0.729,1.475,1.624v1.386H79c1.824,0,3.725-1.041,5.563-2.048
					c1.764-0.966,3.583-1.962,5.226-1.962h21.177c3.597,0,6.751,3.43,6.751,7.339V87.38c0,3.908-3.154,7.337-6.751,7.337H74.035z
					 M69.883,87.38c0,2.436,2.018,4.737,4.151,4.737h36.932c2.134,0,4.151-2.302,4.151-4.737V70.9h-10.444
					c-2.038-4.646-6.612-7.644-11.673-7.644s-9.636,2.997-11.674,7.644H69.883V87.38z M106,62.9c-0.606,0-1.1,0.493-1.1,1.1v2
					c0,0.606,0.493,1.1,1.1,1.1h5c0.606,0,1.1-0.493,1.1-1.1v-2c0-0.606-0.493-1.1-1.1-1.1H106z"/>
			</g>
		</g>
	</g>
	<rect x="62" y="50" opacity="0.5" fill="none" width="62" height="50"/>
</g>
<g>
	<g>
		<g opacity="0.25">
			<path d="M66.061,44.91c-0.331,0-0.659-0.086-0.951-0.254c-0.439-0.254-0.758-0.673-0.887-1.164
				c-0.672-2.561-1.013-5.219-1.013-7.898C63.21,18.785,76.575,5.111,93,5.111c16.428,0,29.793,13.674,29.793,30.482
				c0,2.672-0.338,5.322-1.005,7.878c-0.128,0.491-0.446,0.91-0.886,1.165c-0.438,0.254-0.961,0.322-1.45,0.189l-23.261-6.314
				l0.995-3.666l21.343,5.793c0.309-1.655,0.464-3.345,0.464-5.045c0-14.713-11.66-26.684-25.993-26.684
				c-14.33,0-25.99,11.971-25.99,26.684c0,1.707,0.156,3.401,0.467,5.061l21.334-5.831l1.002,3.666l-23.252,6.354
				C66.397,44.889,66.229,44.91,66.061,44.91z"/>
			
				<rect x="113.937" y="24.533" transform="matrix(0.1947 0.9809 -0.9809 0.1947 122.6057 -88.0686)" width="2.001" height="12.201"/>
			<rect x="101.891" y="8.837" transform="matrix(0.8969 0.4423 -0.4423 0.8969 17.2221 -43.9701)" width="2" height="12.21"/>
			<rect x="64.966" y="29.634" transform="matrix(0.9808 0.1951 -0.1951 0.9808 7.3437 -13.2784)" width="12.201" height="1.999"/>
			<rect x="77.008" y="13.942" transform="matrix(0.4423 0.8968 -0.8968 0.4423 59.7499 -66.2075)" width="12.211" height="2"/>
			<path d="M108.515,40.096c-0.084,0-0.169-0.012-0.255-0.033c-0.529-0.141-0.846-0.684-0.706-1.215
				c0.329-1.246,0.497-2.541,0.497-3.849c0-8.296-6.752-15.046-15.051-15.046c-8.296,0-15.045,6.75-15.045,15.046
				c0,1.3,0.164,2.587,0.49,3.829c0.14,0.53-0.178,1.073-0.709,1.213c-0.534,0.136-1.073-0.18-1.213-0.709
				c-0.368-1.406-0.555-2.863-0.555-4.333c0-9.392,7.641-17.032,17.031-17.032c9.395,0,17.037,7.641,17.037,17.032
				c0,1.479-0.189,2.944-0.562,4.356C109.358,39.801,108.956,40.096,108.515,40.096z"/>
			<path d="M93,40.9c-3.253,0-5.899-2.646-5.899-5.9s2.646-5.9,5.899-5.9c3.254,0,5.9,2.646,5.9,5.9S96.254,40.9,93,40.9z M93,32.9
				c-1.157,0-2.1,0.941-2.1,2.1s0.942,2.1,2.1,2.1c1.158,0,2.101-0.941,2.101-2.1S94.159,32.9,93,32.9z"/>
			<path d="M93,48.004c-5.728,0-10.718-3.672-12.418-9.137l1.91-0.594c1.438,4.624,5.661,7.73,10.508,7.73
				c4.83,0,9.048-3.09,10.498-7.689l1.907,0.602C103.692,44.352,98.708,48.004,93,48.004z"/>
			<polygon points="96.274,31.774 114.908,15.826 117.19,18.801 96.958,32.667 			"/>
			<polygon points="89.044,32.667 68.814,18.801 71.096,15.826 89.729,31.774 			"/>
			<polygon points="92.438,30.44 91.125,5.948 94.875,5.948 93.563,30.44 			"/>
		</g>
		<g>
			<path fill="#FFFFFF" d="M66.061,45.91c-0.331,0-0.659-0.086-0.951-0.254c-0.439-0.254-0.758-0.673-0.887-1.164
				c-0.672-2.561-1.013-5.219-1.013-7.898C63.21,19.785,76.575,6.111,93,6.111c16.428,0,29.793,13.674,29.793,30.482
				c0,2.672-0.338,5.322-1.005,7.878c-0.128,0.491-0.446,0.91-0.886,1.165c-0.438,0.254-0.961,0.322-1.45,0.189l-23.261-6.314
				l0.995-3.666l21.343,5.793c0.309-1.655,0.464-3.345,0.464-5.045c0-14.713-11.66-26.684-25.993-26.684
				c-14.33,0-25.99,11.971-25.99,26.684c0,1.707,0.156,3.401,0.467,5.061l21.334-5.831l1.002,3.666l-23.252,6.354
				C66.397,45.889,66.229,45.91,66.061,45.91z"/>
			
				<rect x="113.937" y="25.533" transform="matrix(0.1947 0.9809 -0.9809 0.1947 123.5866 -87.2633)" fill="#FFFFFF" width="2.001" height="12.201"/>
			
				<rect x="101.891" y="9.837" transform="matrix(0.8969 0.4423 -0.4423 0.8969 17.6644 -43.8669)" fill="#FFFFFF" width="2" height="12.21"/>
			
				<rect x="64.966" y="30.634" transform="matrix(0.9808 0.1951 -0.1951 0.9808 7.5388 -13.2592)" fill="#FFFFFF" width="12.201" height="1.999"/>
			
				<rect x="77.008" y="14.942" transform="matrix(0.4423 0.8968 -0.8968 0.4423 60.6467 -65.6498)" fill="#FFFFFF" width="12.211" height="2"/>
			<path fill="#FFFFFF" d="M108.515,41.096c-0.084,0-0.169-0.012-0.255-0.033c-0.529-0.141-0.846-0.684-0.706-1.215
				c0.329-1.246,0.497-2.541,0.497-3.849c0-8.296-6.752-15.046-15.051-15.046c-8.296,0-15.045,6.75-15.045,15.046
				c0,1.3,0.164,2.587,0.49,3.829c0.14,0.53-0.178,1.073-0.709,1.213c-0.534,0.136-1.073-0.18-1.213-0.709
				c-0.368-1.406-0.555-2.863-0.555-4.333c0-9.392,7.641-17.032,17.031-17.032c9.395,0,17.037,7.641,17.037,17.032
				c0,1.479-0.189,2.944-0.562,4.356C109.358,40.801,108.956,41.096,108.515,41.096z"/>
			<path fill="#FFFFFF" d="M93,41.9c-3.253,0-5.899-2.646-5.899-5.9s2.646-5.9,5.899-5.9c3.254,0,5.9,2.646,5.9,5.9
				S96.254,41.9,93,41.9z M93,33.9c-1.157,0-2.1,0.941-2.1,2.1s0.942,2.1,2.1,2.1c1.158,0,2.101-0.941,2.101-2.1
				S94.159,33.9,93,33.9z"/>
			<g>
				<path fill="#FFFFFF" d="M93,49.004c-5.728,0-10.718-3.672-12.418-9.137l1.91-0.594c1.438,4.624,5.661,7.73,10.508,7.73
					c4.83,0,9.048-3.09,10.498-7.689l1.907,0.602C103.692,45.352,98.708,49.004,93,49.004z"/>
			</g>
			<polygon fill="#FFFFFF" points="96.274,32.774 114.908,16.826 117.19,19.801 96.958,33.667 			"/>
			<polygon fill="#FFFFFF" points="89.044,33.667 68.814,19.801 71.096,16.826 89.729,32.774 			"/>
			<polygon fill="#FFFFFF" points="92.438,31.44 91.125,6.948 94.875,6.948 93.563,31.44 			"/>
		</g>
	</g>
	<rect x="62" opacity="0.5" fill="none" width="62" height="50"/>
</g>
</svg>
